<?xml version="1.0" standalone="no"?>
<!DOCTYPE svg PUBLIC "-//W3C//DTD SVG 20010904//EN"
 "http://www.w3.org/TR/2001/REC-SVG-20010904/DTD/svg10.dtd">
<svg version="1.0" xmlns="http://www.w3.org/2000/svg"
 width="300.000000pt" height="300.000000pt" viewBox="0 0 300.000000 300.000000"
 preserveAspectRatio="xMidYMid meet">
<metadata>
Created by potrace 1.10, written by Peter Selinger 2001-2011
</metadata>
<g transform="translate(0.000000,300.000000) scale(0.100000,-0.100000)"
fill="#000000" stroke="none">
<path d="M813 2600 c-210 -55 -370 -218 -419 -427 -23 -98 -14 -269 21 -388
79 -272 261 -555 579 -905 165 -181 491 -510 505 -510 19 0 320 301 505 505
419 460 615 823 618 1144 2 178 -49 309 -167 426 -145 145 -344 204 -546 161
-155 -33 -287 -140 -377 -305 l-29 -52 -39 68 c-52 90 -173 212 -244 246 -116
57 -277 71 -407 37z m268 -64 c37 -8 86 -24 110 -36 87 -45 193 -169 263 -308
38 -76 58 -70 116 35 122 221 238 306 435 319 238 17 455 -129 526 -355 28
-89 28 -226 1 -342 -80 -335 -313 -665 -859 -1219 l-173 -175 -108 110 c-485
494 -702 765 -832 1037 -67 141 -100 260 -107 383 -7 122 6 191 54 287 104
208 336 314 574 264z"/>
</g>
</svg>
