<?xml version="1.0" standalone="no"?>
<!DOCTYPE svg PUBLIC "-//W3C//DTD SVG 20010904//EN"
 "http://www.w3.org/TR/2001/REC-SVG-20010904/DTD/svg10.dtd">
<svg version="1.0" xmlns="http://www.w3.org/2000/svg"
 width="300.000000pt" height="300.000000pt" viewBox="0 0 300.000000 300.000000"
 preserveAspectRatio="xMidYMid meet">
<metadata>
Created by potrace 1.10, written by Peter Selinger 2001-2011
</metadata>
<g transform="translate(0.000000,300.000000) scale(0.100000,-0.100000)"
fill="#000000" stroke="none">
<path d="M1490 2491 c-63 -13 -63 -13 -56 -126 20 -308 -89 -585 -289 -736
l-55 -41 -30 26 c-17 14 -45 28 -63 31 -18 3 -143 5 -279 3 -271 -3 -271 -3
-322 -72 -21 -27 -21 -38 -21 -501 0 -463 0 -474 21 -501 51 -69 51 -69 322
-72 136 -2 262 0 280 3 18 3 50 21 71 40 l38 34 74 -39 75 -39 490 -2 c480 -1
492 -1 532 20 22 11 53 36 67 56 28 36 65 139 65 180 0 15 11 32 29 44 49 35
76 104 74 192 -1 73 0 77 28 98 65 48 86 147 49 230 -22 47 -25 77 -10 86 19
12 53 145 47 186 -6 48 -45 101 -97 134 -94 59 -304 91 -528 80 l-143 -7 8 73
c4 41 8 135 7 209 -1 112 -5 146 -23 200 -47 137 -132 206 -263 215 -35 2 -79
1 -98 -4z m168 -90 c136 -70 183 -282 127 -576 -13 -71 -7 -105 18 -105 7 0
74 5 149 10 250 18 467 -14 543 -81 39 -34 59 -92 49 -136 -4 -15 -19 -53 -34
-83 l-28 -55 19 -35 c51 -95 43 -156 -29 -207 l-39 -28 1 -104 1 -103 -47 -42
c-41 -36 -48 -48 -48 -79 0 -53 -35 -139 -71 -173 l-30 -29 -483 -3 -482 -3
-77 43 -77 43 0 435 1 435 50 35 c112 78 221 223 274 364 44 116 58 200 59
353 l1 143 58 0 c37 0 71 -7 95 -19z m-637 -848 c22 -22 22 -23 23 -477 l1
-455 -23 -23 c-22 -23 -26 -23 -276 -23 -236 0 -255 1 -275 19 -21 19 -21 24
-21 481 0 427 1 463 18 477 9 9 24 18 32 21 8 3 124 5 257 4 235 -2 243 -3
264 -24z"/>
</g>
</svg>
