<?xml version="1.0" standalone="no"?>
<!DOCTYPE svg PUBLIC "-//W3C//DTD SVG 20010904//EN"
 "http://www.w3.org/TR/2001/REC-SVG-20010904/DTD/svg10.dtd">
<svg version="1.0" xmlns="http://www.w3.org/2000/svg"
 width="300.000000pt" height="300.000000pt" viewBox="0 0 300.000000 300.000000"
 preserveAspectRatio="xMidYMid meet">
<metadata>
Created by potrace 1.10, written by Peter Selinger 2001-2011
</metadata>
<g transform="translate(0.000000,300.000000) scale(0.100000,-0.100000)"
fill="#000000" stroke="none">
<path d="M1517 2493 c-15 -4 -16 -14 -11 -87 8 -96 -9 -255 -37 -358 -49 -179
-167 -359 -304 -465 l-75 -58 0 -467 0 -467 83 -45 83 -46 507 0 c555 -1 543
-2 586 59 28 38 51 105 51 145 0 53 11 74 45 95 61 35 79 101 61 221 l-7 55
39 24 c22 13 47 37 56 52 24 40 20 106 -9 158 -14 23 -25 48 -25 53 0 6 14 39
31 74 42 86 44 148 4 199 -73 96 -294 135 -640 113 -170 -11 -167 -12 -148 94
20 114 27 304 14 383 -21 126 -84 224 -163 254 -31 11 -118 21 -141 14z"/>
<path d="M402 1557 c-22 -23 -22 -24 -22 -515 0 -477 1 -493 20 -512 11 -11
30 -22 42 -25 13 -3 140 -5 282 -3 257 3 258 3 277 27 18 22 19 46 19 515 l0
493 -23 21 c-23 21 -30 22 -298 22 -275 0 -276 0 -297 -23z"/>
</g>
</svg>
